<svg xmlns="http://www.w3.org/2000/svg" xmlns:xlink="http://www.w3.org/1999/xlink" width="500" zoomAndPan="magnify" viewBox="0 0 375 144.749998" height="193" preserveAspectRatio="xMidYMid meet" version="1.0"><defs><clipPath id="9762878baf"><path d="M 0.324219 0 L 374.675781 0 L 374.675781 144.5 L 0.324219 144.5 Z M 0.324219 0 " clip-rule="nonzero"/></clipPath><clipPath id="152921f6b7"><path d="M 10.980469 11.625 L 364.183594 11.625 L 364.183594 132.667969 L 10.980469 132.667969 Z M 10.980469 11.625 " clip-rule="nonzero"/></clipPath><clipPath id="c81971b4ad"><path d="M 20.449219 11.625 L 354.550781 11.625 C 359.78125 11.625 364.019531 15.863281 364.019531 21.089844 L 364.019531 123.203125 C 364.019531 128.433594 359.78125 132.667969 354.550781 132.667969 L 20.449219 132.667969 C 15.21875 132.667969 10.980469 128.433594 10.980469 123.203125 L 10.980469 21.089844 C 10.980469 15.863281 15.21875 11.625 20.449219 11.625 Z M 20.449219 11.625 " clip-rule="nonzero"/></clipPath><clipPath id="ecb3cbf1d0"><path d="M 0.980469 0.625 L 354.183594 0.625 L 354.183594 121.667969 L 0.980469 121.667969 Z M 0.980469 0.625 " clip-rule="nonzero"/></clipPath><clipPath id="967d5bbe86"><path d="M 10.449219 0.625 L 344.550781 0.625 C 349.78125 0.625 354.019531 4.863281 354.019531 10.089844 L 354.019531 112.203125 C 354.019531 117.433594 349.78125 121.667969 344.550781 121.667969 L 10.449219 121.667969 C 5.21875 121.667969 0.980469 117.433594 0.980469 112.203125 L 0.980469 10.089844 C 0.980469 4.863281 5.21875 0.625 10.449219 0.625 Z M 10.449219 0.625 " clip-rule="nonzero"/></clipPath><clipPath id="3b49fb511d"><rect x="0" width="355" y="0" height="122"/></clipPath><clipPath id="9e868360aa"><path d="M 0.324219 0 L 374.457031 0 L 374.457031 143.734375 L 0.324219 143.734375 Z M 0.324219 0 " clip-rule="nonzero"/></clipPath><clipPath id="be1832e293"><rect x="0" width="375" y="0" height="145"/></clipPath></defs><g clip-path="url(#9762878baf)"><g transform="matrix(1, 0, 0, 1, 0, 0.000000000000007744)"><g clip-path="url(#be1832e293)"><g clip-path="url(#152921f6b7)"><g clip-path="url(#c81971b4ad)"><g transform="matrix(1, 0, 0, 1, 10, 11)"><g clip-path="url(#3b49fb511d)"><g clip-path="url(#ecb3cbf1d0)"><g clip-path="url(#967d5bbe86)"><path fill="#ffffff" d="M 0.980469 0.625 L 354.183594 0.625 L 354.183594 121.667969 L 0.980469 121.667969 Z M 0.980469 0.625 " fill-opacity="1" fill-rule="nonzero"/></g></g></g></g></g></g><g clip-path="url(#9e868360aa)"><path fill="#254aa0" d="M 32.984375 0.417969 C 14.890625 0.417969 0.324219 14.9375 0.324219 32.96875 L 0.324219 110.765625 C 0.324219 128.800781 14.890625 143.320312 32.984375 143.320312 L 341.792969 143.320312 C 359.886719 143.320312 374.457031 128.800781 374.457031 110.765625 L 374.457031 32.96875 C 374.457031 14.9375 359.886719 0.417969 341.792969 0.417969 Z M 74.34375 15.519531 C 83.414062 24.433594 92.496094 33.363281 101.578125 42.289062 L 98.363281 45.472656 C 90.355469 37.597656 82.347656 29.730469 74.34375 21.863281 C 66.371094 29.683594 58.40625 37.515625 50.433594 45.347656 L 47.21875 42.167969 C 56.253906 33.285156 65.292969 24.402344 74.34375 15.519531 Z M 238.085938 17.890625 C 246.972656 17.890625 254.480469 19.773438 260.609375 23.535156 C 266.742188 27.292969 271.34375 32.464844 274.410156 39.046875 C 277.476562 45.625 279.007812 53.105469 279.007812 61.488281 C 279.007812 70.421875 277.378906 78.140625 274.117188 84.644531 C 270.855469 91.148438 266.15625 96.144531 260.023438 99.628906 C 253.890625 103.117188 246.65625 104.859375 238.324219 104.859375 C 229.597656 104.859375 222.148438 103.054688 215.972656 99.453125 C 209.804688 95.847656 205.144531 90.816406 202.003906 84.355469 C 198.859375 77.886719 197.289062 70.386719 197.289062 61.839844 C 197.289062 52.988281 198.859375 45.253906 202.003906 38.632812 C 205.144531 32.011719 209.765625 26.902344 215.859375 23.296875 C 221.953125 19.691406 229.363281 17.890625 238.085938 17.890625 Z M 167.460938 19.296875 L 184.433594 19.296875 L 184.433594 103.445312 L 167.460938 103.445312 Z M 292.554688 19.296875 L 327.8125 19.296875 C 331.902344 19.296875 335.300781 19.414062 338.015625 19.648438 C 340.726562 19.886719 343.144531 20.394531 345.265625 21.179688 C 349.117188 22.511719 352.398438 24.9375 355.113281 28.464844 C 357.824219 31.992188 359.179688 35.988281 359.179688 40.453125 C 359.179688 45 357.921875 48.878906 355.40625 52.09375 C 352.890625 55.304688 350.175781 57.496094 347.269531 58.667969 C 352.929688 60.316406 357.019531 63.019531 359.535156 66.785156 C 362.050781 70.542969 363.308594 74.617188 363.308594 79.003906 C 363.308594 83.859375 361.894531 88.484375 359.066406 92.871094 C 356.234375 97.257812 352.421875 100.195312 347.625 101.679688 C 345.5 102.386719 342.828125 102.859375 339.601562 103.09375 C 336.378906 103.328125 332.449219 103.445312 327.8125 103.445312 L 292.554688 103.445312 Z M 74.34375 25.675781 C 81.703125 32.910156 89.0625 40.144531 96.425781 47.382812 L 93.210938 50.566406 C 86.914062 44.378906 80.628906 38.203125 74.332031 32.019531 C 68.089844 38.160156 61.839844 44.300781 55.585938 50.441406 L 52.371094 47.257812 C 59.6875 40.054688 67.015625 32.867188 74.34375 25.675781 Z M 238.085938 32.460938 C 229.988281 32.460938 224.09375 35.164062 220.394531 40.570312 C 216.703125 45.976562 214.855469 52.910156 214.855469 61.371094 C 214.855469 67.957031 215.914062 73.402344 218.039062 77.710938 C 220.164062 82.019531 222.992188 85.191406 226.53125 87.226562 C 230.066406 89.265625 233.960938 90.285156 238.210938 90.285156 C 242.136719 90.285156 245.832031 89.382812 249.289062 87.582031 C 252.75 85.777344 255.640625 82.703125 257.957031 78.355469 C 260.273438 74.007812 261.433594 68.269531 261.433594 61.140625 C 261.433594 52.753906 259.585938 45.878906 255.894531 40.515625 C 252.199219 35.144531 246.261719 32.460938 238.085938 32.460938 Z M 309.535156 33.519531 L 309.535156 52.792969 L 328.636719 52.792969 C 337.914062 52.792969 342.554688 49.582031 342.554688 43.15625 C 342.554688 40.964844 342.023438 39.144531 340.957031 37.695312 C 339.898438 36.242188 338.542969 35.164062 336.890625 34.460938 C 335.398438 33.832031 332.53125 33.519531 328.285156 33.519531 Z M 74.34375 35.824219 C 79.980469 41.375 85.632812 46.929688 91.273438 52.472656 L 88.054688 55.65625 L 74.34375 42.179688 L 60.75 55.53125 L 57.523438 52.347656 C 63.128906 46.839844 68.734375 41.332031 74.34375 35.824219 Z M 103.492188 44.164062 C 112.53125 53.046875 121.554688 61.917969 130.59375 70.789062 L 127.367188 73.972656 C 119.414062 66.152344 111.453125 58.339844 103.492188 50.519531 C 95.507812 58.363281 87.511719 66.21875 79.515625 74.074219 L 76.300781 70.890625 C 85.371094 61.988281 94.433594 53.082031 103.492188 44.164062 Z M 45.132812 44.207031 C 54.238281 53.15625 63.34375 62.109375 72.460938 71.058594 L 69.234375 74.242188 C 61.203125 66.339844 53.164062 58.453125 45.132812 50.550781 C 37.171875 58.382812 29.210938 66.203125 21.238281 74.027344 L 18.023438 70.84375 C 27.058594 61.960938 36.097656 53.089844 45.132812 44.207031 Z M 103.492188 54.320312 C 110.808594 61.507812 118.125 68.699219 125.441406 75.878906 L 122.210938 79.0625 C 115.972656 72.933594 109.730469 66.804688 103.492188 60.675781 C 97.230469 66.835938 90.957031 73 84.679688 79.164062 L 81.453125 75.980469 C 88.804688 68.765625 96.152344 61.542969 103.492188 54.320312 Z M 45.132812 54.367188 C 52.53125 61.625 59.914062 68.882812 67.308594 76.152344 L 64.082031 79.332031 C 57.761719 73.125 51.453125 66.917969 45.132812 60.710938 C 38.894531 66.851562 32.644531 72.992188 26.402344 79.121094 L 23.175781 75.949219 C 30.492188 68.746094 37.820312 61.558594 45.132812 54.367188 Z M 103.492188 64.480469 C 109.085938 69.976562 114.691406 75.472656 120.277344 80.980469 L 119.765625 81.488281 L 117.367188 83.847656 L 117.058594 84.152344 L 103.492188 70.835938 L 89.835938 84.253906 L 86.605469 81.074219 C 92.234375 75.542969 97.863281 70.011719 103.492188 64.480469 Z M 45.132812 64.523438 L 62.144531 81.238281 L 58.929688 84.421875 L 45.132812 70.867188 L 31.554688 84.21875 L 28.328125 81.035156 C 33.933594 75.527344 39.527344 70.019531 45.132812 64.523438 Z M 309.535156 67.011719 L 309.535156 89.222656 L 327.226562 89.222656 C 331.308594 89.222656 334.492188 89.066406 336.773438 88.753906 C 339.367188 88.359375 341.511719 87.28125 343.199219 85.519531 C 344.890625 83.757812 345.734375 81.429688 345.734375 78.53125 C 345.734375 75.242188 344.910156 72.753906 343.261719 71.066406 C 341.613281 69.382812 339.390625 68.289062 336.597656 67.78125 C 333.808594 67.269531 330.171875 67.011719 325.695312 67.011719 Z M 132.519531 72.796875 L 132.519531 79.140625 C 122.800781 88.6875 113.097656 98.238281 103.378906 107.785156 C 94.070312 98.632812 84.761719 89.488281 75.453125 80.347656 L 75.453125 73.992188 C 84.761719 83.144531 94.070312 92.289062 103.378906 101.429688 C 113.097656 91.882812 122.800781 82.34375 132.519531 72.796875 Z M 16.019531 72.976562 C 25.710938 82.503906 35.40625 92.027344 45.101562 101.554688 C 54.421875 92.390625 63.742188 83.238281 73.0625 74.070312 L 73.0625 80.425781 C 63.742188 89.582031 54.421875 98.746094 45.101562 107.898438 C 35.40625 98.371094 25.710938 88.847656 16.019531 79.332031 Z M 132.519531 82.953125 L 132.519531 89.296875 C 122.800781 98.847656 113.097656 108.394531 103.378906 117.933594 C 94.070312 108.789062 84.761719 99.648438 75.453125 90.503906 L 75.453125 84.152344 C 84.761719 93.304688 94.070312 102.449219 103.378906 111.589844 C 113.097656 102.042969 122.800781 92.492188 132.519531 82.953125 Z M 16.019531 83.136719 C 25.710938 92.660156 35.40625 102.1875 45.101562 111.714844 C 54.421875 102.550781 63.742188 93.394531 73.0625 84.230469 L 73.0625 90.585938 C 63.742188 99.738281 54.421875 108.902344 45.101562 118.058594 C 35.40625 108.53125 25.710938 99.003906 16.019531 89.480469 Z M 132.519531 93.101562 L 132.519531 99.457031 C 122.800781 109.003906 113.097656 118.554688 103.378906 128.089844 C 94.070312 118.949219 84.761719 109.804688 75.453125 100.652344 L 75.453125 94.308594 C 84.761719 103.453125 94.070312 112.605469 103.378906 121.746094 C 113.097656 112.199219 122.800781 102.652344 132.519531 93.101562 Z M 16.019531 93.292969 C 25.710938 102.820312 35.40625 112.34375 45.101562 121.871094 C 54.421875 112.707031 63.742188 103.554688 73.0625 94.386719 L 73.0625 100.742188 C 63.742188 109.898438 54.421875 119.0625 45.101562 128.214844 L 16.019531 99.636719 Z M 177.027344 110.421875 C 179.644531 110.421875 181.25 111.582031 181.84375 113.902344 L 180.441406 114.300781 C 180.429688 114.269531 180.398438 114.148438 180.335938 113.941406 C 180.273438 113.730469 180.179688 113.507812 180.054688 113.269531 C 179.929688 113.035156 179.78125 112.839844 179.617188 112.6875 C 178.945312 112.0625 178.089844 111.75 177.0625 111.75 C 175.683594 111.75 174.617188 112.167969 173.855469 113.007812 C 173.097656 113.847656 172.71875 115.003906 172.71875 116.472656 C 172.71875 118.015625 173.117188 119.1875 173.921875 119.992188 C 174.722656 120.792969 175.828125 121.191406 177.238281 121.191406 C 177.789062 121.191406 178.386719 121.0625 179.035156 120.808594 C 179.6875 120.550781 180.183594 120.269531 180.527344 119.972656 L 180.527344 117.769531 L 177.023438 117.769531 L 177.023438 116.386719 L 182.027344 116.386719 L 182.027344 120.746094 C 181.246094 121.359375 180.457031 121.820312 179.65625 122.128906 C 178.859375 122.433594 178.015625 122.585938 177.121094 122.585938 C 175.9375 122.585938 174.886719 122.339844 173.972656 121.84375 C 173.058594 121.34375 172.351562 120.640625 171.851562 119.730469 C 171.351562 118.816406 171.101562 117.757812 171.101562 116.550781 C 171.101562 115.359375 171.335938 114.300781 171.808594 113.375 C 172.285156 112.445312 172.964844 111.722656 173.855469 111.199219 C 174.746094 110.683594 175.804688 110.421875 177.023438 110.421875 Z M 207.988281 110.617188 L 209.441406 110.617188 L 209.441406 122.390625 L 208.085938 122.390625 L 208.085938 121.308594 C 207.921875 121.589844 207.644531 121.875 207.253906 122.152344 C 206.863281 122.433594 206.347656 122.574219 205.710938 122.574219 C 205.015625 122.574219 204.390625 122.390625 203.828125 122.027344 C 203.269531 121.65625 202.828125 121.132812 202.503906 120.453125 C 202.175781 119.773438 202.015625 118.980469 202.015625 118.082031 C 202.015625 117.183594 202.164062 116.40625 202.464844 115.742188 C 202.773438 115.078125 203.199219 114.566406 203.753906 114.207031 C 204.3125 113.851562 204.960938 113.671875 205.699219 113.671875 C 206.234375 113.671875 206.703125 113.800781 207.101562 114.054688 C 207.503906 114.308594 207.800781 114.570312 207.988281 114.84375 Z M 252.972656 110.617188 L 254.425781 110.617188 L 254.425781 122.390625 L 252.972656 122.390625 Z M 340.980469 110.617188 L 342.433594 110.617188 L 342.433594 112.261719 L 340.980469 112.261719 Z M 349.226562 110.617188 L 350.679688 110.617188 L 350.679688 114.839844 C 351.011719 114.460938 351.382812 114.171875 351.796875 113.972656 C 352.21875 113.773438 352.703125 113.671875 353.253906 113.671875 C 353.710938 113.671875 354.128906 113.746094 354.503906 113.890625 C 354.878906 114.035156 355.191406 114.226562 355.445312 114.464844 C 355.710938 114.714844 355.902344 115.035156 356.019531 115.421875 C 356.140625 115.800781 356.203125 116.296875 356.203125 116.898438 L 356.203125 122.390625 L 354.753906 122.390625 L 354.753906 116.929688 C 354.753906 116.285156 354.601562 115.789062 354.289062 115.445312 C 353.984375 115.101562 353.527344 114.925781 352.921875 114.925781 C 352.484375 114.925781 352.0625 115.050781 351.664062 115.296875 C 351.269531 115.542969 350.996094 115.882812 350.84375 116.320312 C 350.734375 116.648438 350.679688 117.074219 350.679688 117.585938 L 350.679688 122.390625 L 349.226562 122.390625 Z M 272.074219 110.878906 L 272.074219 113.875 L 273.527344 113.875 L 273.527344 114.957031 L 272.074219 114.957031 L 272.074219 120.234375 C 272.074219 120.609375 272.125 120.875 272.230469 121.027344 C 272.335938 121.183594 272.554688 121.257812 272.882812 121.257812 C 272.960938 121.257812 273.175781 121.230469 273.527344 121.171875 L 273.738281 122.457031 C 273.300781 122.542969 272.941406 122.585938 272.671875 122.585938 C 272.109375 122.585938 271.679688 122.496094 271.382812 122.316406 C 271.082031 122.132812 270.882812 121.882812 270.777344 121.5625 C 270.675781 121.238281 270.625 120.816406 270.625 120.300781 L 270.625 114.957031 L 269.566406 114.957031 L 269.566406 113.875 L 270.625 113.875 L 270.625 111.75 Z M 346.324219 110.878906 L 346.324219 113.875 L 347.777344 113.875 L 347.777344 114.957031 L 346.324219 114.957031 L 346.324219 120.234375 C 346.324219 120.609375 346.375 120.875 346.480469 121.027344 C 346.585938 121.183594 346.804688 121.257812 347.136719 121.257812 C 347.210938 121.257812 347.425781 121.230469 347.777344 121.171875 L 347.992188 122.457031 C 347.550781 122.542969 347.191406 122.585938 346.921875 122.585938 C 346.359375 122.585938 345.929688 122.496094 345.632812 122.316406 C 345.335938 122.132812 345.132812 121.882812 345.027344 121.5625 C 344.925781 121.238281 344.875 120.816406 344.875 120.300781 L 344.875 114.957031 L 343.816406 114.957031 L 343.816406 113.875 L 344.875 113.875 L 344.875 111.75 Z M 187.667969 113.671875 C 188.3125 113.671875 188.945312 113.816406 189.554688 114.105469 C 190.164062 114.390625 190.667969 114.863281 191.070312 115.527344 C 191.472656 116.191406 191.675781 117.058594 191.675781 118.128906 C 191.675781 119.082031 191.503906 119.894531 191.160156 120.558594 C 190.820312 121.21875 190.351562 121.71875 189.742188 122.0625 C 189.140625 122.402344 188.449219 122.574219 187.667969 122.574219 C 186.519531 122.574219 185.585938 122.21875 184.863281 121.5 C 184.058594 120.722656 183.660156 119.597656 183.660156 118.128906 C 183.660156 117.175781 183.828125 116.367188 184.167969 115.699219 C 184.507812 115.03125 184.980469 114.523438 185.582031 114.183594 C 186.191406 113.84375 186.882812 113.671875 187.667969 113.671875 Z M 196.839844 113.671875 C 197.484375 113.671875 198.117188 113.816406 198.726562 114.105469 C 199.335938 114.390625 199.839844 114.863281 200.242188 115.527344 C 200.644531 116.191406 200.847656 117.058594 200.847656 118.128906 C 200.847656 119.082031 200.675781 119.894531 200.332031 120.558594 C 199.992188 121.21875 199.523438 121.71875 198.914062 122.0625 C 198.3125 122.402344 197.621094 122.574219 196.839844 122.574219 C 195.691406 122.574219 194.757812 122.21875 194.035156 121.5 C 193.230469 120.722656 192.832031 119.597656 192.832031 118.128906 C 192.832031 117.175781 193 116.367188 193.339844 115.699219 C 193.679688 115.03125 194.152344 114.523438 194.753906 114.183594 C 195.363281 113.84375 196.054688 113.671875 196.839844 113.671875 Z M 220.078125 113.671875 C 220.804688 113.671875 221.441406 113.855469 221.992188 114.21875 C 222.542969 114.582031 222.972656 115.089844 223.273438 115.742188 C 223.574219 116.390625 223.726562 117.144531 223.726562 118 C 223.726562 118.929688 223.5625 119.742188 223.230469 120.4375 C 222.902344 121.128906 222.453125 121.65625 221.886719 122.023438 C 221.320312 122.390625 220.691406 122.574219 220 122.574219 C 219.546875 122.574219 219.128906 122.476562 218.742188 122.289062 C 218.359375 122.09375 218.027344 121.832031 217.75 121.5 L 217.75 125.660156 L 216.304688 125.660156 L 216.304688 113.875 L 217.625 113.875 L 217.625 114.976562 C 217.941406 114.539062 218.289062 114.210938 218.667969 113.996094 C 219.046875 113.78125 219.515625 113.671875 220.078125 113.671875 Z M 228.988281 113.671875 C 229.816406 113.671875 230.523438 113.867188 231.109375 114.257812 C 231.699219 114.644531 232.140625 115.171875 232.433594 115.828125 C 232.730469 116.484375 232.878906 117.21875 232.878906 118.03125 L 232.878906 118.496094 L 226.496094 118.496094 C 226.539062 119.40625 226.796875 120.113281 227.273438 120.625 C 227.742188 121.132812 228.347656 121.386719 229.085938 121.386719 C 229.648438 121.386719 230.113281 121.238281 230.480469 120.941406 C 230.847656 120.644531 231.132812 120.214844 231.332031 119.644531 L 232.832031 119.828125 C 232.601562 120.679688 232.167969 121.351562 231.523438 121.84375 C 230.878906 122.328125 230.089844 122.574219 229.152344 122.574219 C 227.847656 122.574219 226.824219 122.1875 226.09375 121.421875 C 225.359375 120.65625 224.992188 119.582031 224.992188 118.195312 C 224.992188 117.273438 225.15625 116.476562 225.488281 115.796875 C 225.816406 115.113281 226.28125 114.589844 226.878906 114.226562 C 227.480469 113.859375 228.183594 113.671875 228.988281 113.671875 Z M 238.113281 113.671875 C 238.757812 113.671875 239.386719 113.816406 240 114.105469 C 240.609375 114.390625 241.113281 114.863281 241.515625 115.527344 C 241.917969 116.191406 242.117188 117.058594 242.117188 118.128906 C 242.117188 119.082031 241.949219 119.894531 241.605469 120.558594 C 241.265625 121.21875 240.792969 121.71875 240.1875 122.0625 C 239.585938 122.402344 238.894531 122.574219 238.113281 122.574219 C 236.964844 122.574219 236.03125 122.21875 235.308594 121.5 C 234.503906 120.722656 234.105469 119.597656 234.105469 118.128906 C 234.105469 117.175781 234.273438 116.367188 234.609375 115.699219 C 234.953125 115.03125 235.425781 114.523438 236.027344 114.183594 C 236.632812 113.84375 237.328125 113.671875 238.109375 113.671875 Z M 247.59375 113.671875 C 248.320312 113.671875 248.957031 113.855469 249.507812 114.21875 C 250.058594 114.582031 250.488281 115.089844 250.789062 115.742188 C 251.089844 116.390625 251.242188 117.144531 251.242188 118 C 251.242188 118.929688 251.078125 119.742188 250.746094 120.4375 C 250.417969 121.128906 249.96875 121.65625 249.402344 122.023438 C 248.835938 122.390625 248.207031 122.574219 247.515625 122.574219 C 247.0625 122.574219 246.644531 122.476562 246.257812 122.289062 C 245.875 122.09375 245.542969 121.832031 245.269531 121.5 L 245.269531 125.660156 L 243.820312 125.660156 L 243.820312 113.875 L 245.140625 113.875 L 245.140625 114.976562 C 245.457031 114.539062 245.804688 114.210938 246.183594 113.996094 C 246.5625 113.78125 247.035156 113.671875 247.59375 113.671875 Z M 260.167969 113.671875 C 260.992188 113.671875 261.699219 113.867188 262.285156 114.257812 C 262.875 114.644531 263.320312 115.171875 263.613281 115.828125 C 263.90625 116.484375 264.058594 117.21875 264.058594 118.03125 L 264.058594 118.496094 L 257.675781 118.496094 C 257.71875 119.40625 257.976562 120.113281 258.449219 120.625 C 258.921875 121.132812 259.527344 121.386719 260.265625 121.386719 C 260.828125 121.386719 261.289062 121.238281 261.65625 120.941406 C 262.027344 120.644531 262.3125 120.214844 262.511719 119.644531 L 264.007812 119.828125 C 263.78125 120.679688 263.34375 121.351562 262.703125 121.84375 C 262.058594 122.328125 261.269531 122.574219 260.332031 122.574219 C 259.023438 122.574219 258.003906 122.1875 257.269531 121.421875 C 256.539062 120.65625 256.171875 119.582031 256.171875 118.195312 C 256.171875 117.273438 256.335938 116.476562 256.667969 115.796875 C 256.996094 115.113281 257.460938 114.589844 258.058594 114.226562 C 258.660156 113.859375 259.363281 113.671875 260.167969 113.671875 Z M 278.460938 113.671875 C 279.109375 113.671875 279.738281 113.816406 280.347656 114.105469 C 280.957031 114.390625 281.460938 114.863281 281.863281 115.527344 C 282.265625 116.191406 282.46875 117.058594 282.46875 118.128906 C 282.46875 119.082031 282.296875 119.894531 281.953125 120.558594 C 281.613281 121.21875 281.144531 121.71875 280.539062 122.0625 C 279.933594 122.402344 279.242188 122.574219 278.460938 122.574219 C 277.316406 122.574219 276.378906 122.21875 275.65625 121.5 C 274.851562 120.722656 274.453125 119.597656 274.453125 118.128906 C 274.453125 117.175781 274.621094 116.367188 274.960938 115.699219 C 275.300781 115.03125 275.773438 114.523438 276.378906 114.183594 C 276.984375 113.84375 277.679688 113.671875 278.460938 113.671875 Z M 291.917969 113.671875 C 292.910156 113.671875 293.734375 114.078125 294.394531 114.890625 L 294.394531 113.875 L 295.730469 113.875 L 295.730469 121.375 C 295.730469 122.617188 295.574219 123.542969 295.253906 124.148438 C 294.976562 124.664062 294.5625 125.074219 294.007812 125.378906 C 293.453125 125.6875 292.742188 125.84375 291.871094 125.84375 C 291.144531 125.84375 290.527344 125.726562 290.011719 125.496094 C 289.503906 125.265625 289.117188 124.960938 288.859375 124.582031 C 288.601562 124.203125 288.472656 123.792969 288.472656 123.347656 L 288.484375 123.097656 L 289.890625 123.308594 L 289.890625 123.347656 C 289.964844 123.792969 290.164062 124.125 290.488281 124.339844 C 290.8125 124.554688 291.296875 124.664062 291.9375 124.664062 C 292.363281 124.664062 292.738281 124.589844 293.066406 124.449219 C 293.390625 124.304688 293.648438 124.109375 293.835938 123.851562 C 293.996094 123.625 294.109375 123.355469 294.171875 123.042969 C 294.234375 122.730469 294.261719 122.347656 294.261719 121.898438 L 294.261719 121.269531 C 293.609375 122.019531 292.828125 122.390625 291.917969 122.390625 C 291.179688 122.390625 290.53125 122.207031 289.96875 121.84375 C 289.410156 121.472656 288.976562 120.960938 288.660156 120.300781 C 288.347656 119.644531 288.191406 118.902344 288.191406 118.066406 C 288.191406 117.191406 288.34375 116.421875 288.648438 115.761719 C 288.957031 115.09375 289.394531 114.582031 289.960938 114.21875 C 290.527344 113.855469 291.179688 113.671875 291.917969 113.671875 Z M 301.042969 113.671875 C 301.539062 113.671875 302.027344 113.828125 302.515625 114.136719 L 302.019531 115.46875 C 301.664062 115.261719 301.296875 115.15625 300.914062 115.15625 C 300.359375 115.15625 299.957031 115.40625 299.699219 115.90625 C 299.441406 116.402344 299.3125 117.046875 299.3125 117.835938 L 299.3125 122.390625 L 297.859375 122.390625 L 297.859375 113.875 L 299.160156 113.875 L 299.160156 115.15625 C 299.4375 114.664062 299.710938 114.292969 299.980469 114.042969 C 300.25 113.796875 300.601562 113.671875 301.042969 113.671875 Z M 306.882812 113.671875 C 307.53125 113.671875 308.160156 113.816406 308.769531 114.105469 C 309.382812 114.390625 309.886719 114.863281 310.285156 115.527344 C 310.6875 116.191406 310.890625 117.058594 310.890625 118.128906 C 310.890625 119.082031 310.71875 119.894531 310.378906 120.558594 C 310.039062 121.21875 309.566406 121.71875 308.960938 122.0625 C 308.355469 122.402344 307.664062 122.574219 306.882812 122.574219 C 305.738281 122.574219 304.804688 122.21875 304.078125 121.5 C 303.277344 120.722656 302.875 119.597656 302.875 118.128906 C 302.875 117.175781 303.042969 116.367188 303.382812 115.699219 C 303.726562 115.03125 304.195312 114.523438 304.800781 114.183594 C 305.40625 113.84375 306.101562 113.671875 306.882812 113.671875 Z M 311.554688 113.875 L 313.050781 113.875 L 314.582031 119.449219 L 314.917969 120.613281 C 314.957031 120.417969 314.996094 120.277344 315.03125 120.1875 C 315.164062 119.625 315.300781 119.078125 315.445312 118.542969 L 316.714844 113.875 L 318.21875 113.875 L 319.453125 118.675781 L 319.917969 120.4375 L 320.3125 119.101562 L 321.878906 113.875 L 323.300781 113.875 L 320.605469 122.390625 L 319.109375 122.390625 L 317.722656 117.226562 C 317.652344 116.976562 317.546875 116.507812 317.40625 115.828125 L 315.6875 122.390625 L 314.175781 122.390625 Z M 328.050781 113.875 L 329.546875 113.875 L 331.078125 119.449219 L 331.414062 120.613281 C 331.453125 120.417969 331.492188 120.277344 331.527344 120.1875 C 331.660156 119.625 331.796875 119.078125 331.941406 118.542969 L 333.210938 113.875 L 334.714844 113.875 L 335.949219 118.675781 L 336.414062 120.4375 L 336.808594 119.101562 L 338.375 113.875 L 339.796875 113.875 L 337.101562 122.390625 L 335.605469 122.390625 L 334.21875 117.226562 C 334.148438 116.976562 334.042969 116.507812 333.902344 115.828125 L 332.183594 122.390625 L 330.671875 122.390625 Z M 340.980469 113.875 L 342.433594 113.875 L 342.433594 122.390625 L 340.980469 122.390625 Z M 219.949219 114.8125 C 219.5 114.8125 219.09375 114.953125 218.742188 115.230469 C 218.390625 115.511719 218.113281 115.910156 217.910156 116.425781 C 217.707031 116.9375 217.605469 117.523438 217.605469 118.183594 C 217.605469 119.210938 217.8125 120.003906 218.226562 120.558594 C 218.644531 121.109375 219.203125 121.386719 219.894531 121.386719 C 220.578125 121.386719 221.140625 121.105469 221.582031 120.535156 C 222.019531 119.960938 222.242188 119.140625 222.242188 118.070312 C 222.242188 117.058594 222.03125 116.261719 221.613281 115.683594 C 221.195312 115.101562 220.640625 114.8125 219.949219 114.8125 Z M 247.46875 114.8125 C 247.015625 114.8125 246.613281 114.953125 246.257812 115.230469 C 245.90625 115.511719 245.628906 115.910156 245.425781 116.425781 C 245.222656 116.9375 245.121094 117.523438 245.121094 118.183594 C 245.121094 119.210938 245.328125 120.003906 245.742188 120.558594 C 246.164062 121.109375 246.71875 121.386719 247.410156 121.386719 C 248.097656 121.386719 248.65625 121.105469 249.097656 120.535156 C 249.539062 119.960938 249.757812 119.140625 249.757812 118.070312 C 249.757812 117.058594 249.546875 116.261719 249.128906 115.683594 C 248.710938 115.101562 248.160156 114.8125 247.464844 114.8125 Z M 187.648438 114.859375 C 186.902344 114.859375 186.296875 115.148438 185.835938 115.722656 C 185.371094 116.300781 185.144531 117.101562 185.144531 118.128906 C 185.144531 119.160156 185.371094 119.960938 185.828125 120.53125 C 186.285156 121.101562 186.898438 121.386719 187.667969 121.386719 C 188.425781 121.386719 189.03125 121.105469 189.492188 120.539062 C 189.957031 119.976562 190.191406 119.171875 190.191406 118.128906 C 190.191406 117.121094 189.964844 116.324219 189.511719 115.742188 C 189.0625 115.152344 188.441406 114.859375 187.648438 114.859375 Z M 196.820312 114.859375 C 196.074219 114.859375 195.46875 115.148438 195.007812 115.722656 C 194.546875 116.300781 194.316406 117.101562 194.316406 118.128906 C 194.316406 119.160156 194.542969 119.960938 195 120.53125 C 195.457031 121.101562 196.070312 121.386719 196.839844 121.386719 C 197.597656 121.386719 198.203125 121.105469 198.664062 120.539062 C 199.128906 119.976562 199.363281 119.171875 199.363281 118.128906 C 199.363281 117.121094 199.136719 116.324219 198.683594 115.742188 C 198.234375 115.152344 197.613281 114.859375 196.820312 114.859375 Z M 205.777344 114.859375 C 205.058594 114.859375 204.5 115.148438 204.097656 115.730469 C 203.699219 116.3125 203.5 117.109375 203.5 118.128906 C 203.5 118.832031 203.601562 119.429688 203.808594 119.917969 C 204.019531 120.40625 204.304688 120.773438 204.664062 121.019531 C 205.023438 121.265625 205.417969 121.386719 205.84375 121.386719 C 206.515625 121.386719 207.0625 121.117188 207.488281 120.582031 C 207.910156 120.046875 208.121094 119.273438 208.121094 118.261719 C 208.121094 117.230469 207.917969 116.410156 207.511719 115.789062 C 207.105469 115.167969 206.523438 114.859375 205.777344 114.859375 Z M 228.988281 114.859375 C 228.308594 114.859375 227.75 115.089844 227.316406 115.554688 C 226.878906 116.011719 226.632812 116.59375 226.582031 117.292969 L 231.347656 117.292969 C 231.3125 116.484375 231.0625 115.875 230.59375 115.46875 C 230.128906 115.0625 229.59375 114.859375 228.988281 114.859375 Z M 238.09375 114.859375 C 237.347656 114.859375 236.742188 115.148438 236.277344 115.722656 C 235.816406 116.300781 235.589844 117.101562 235.589844 118.128906 C 235.589844 119.160156 235.816406 119.960938 236.273438 120.53125 C 236.726562 121.101562 237.34375 121.386719 238.113281 121.386719 C 238.867188 121.386719 239.476562 121.105469 239.9375 120.539062 C 240.402344 119.976562 240.632812 119.171875 240.632812 118.128906 C 240.632812 117.121094 240.410156 116.324219 239.957031 115.742188 C 239.507812 115.152344 238.886719 114.859375 238.09375 114.859375 Z M 260.167969 114.859375 C 259.484375 114.859375 258.929688 115.089844 258.492188 115.554688 C 258.054688 116.011719 257.8125 116.59375 257.761719 117.292969 L 262.523438 117.292969 C 262.492188 116.484375 262.242188 115.875 261.773438 115.46875 C 261.308594 115.0625 260.773438 114.859375 260.167969 114.859375 Z M 278.441406 114.859375 C 277.695312 114.859375 277.09375 115.148438 276.628906 115.722656 C 276.167969 116.300781 275.9375 117.101562 275.9375 118.128906 C 275.9375 119.160156 276.164062 119.960938 276.621094 120.53125 C 277.078125 121.101562 277.691406 121.386719 278.460938 121.386719 C 279.21875 121.386719 279.824219 121.105469 280.285156 120.539062 C 280.75 119.976562 280.984375 119.171875 280.984375 118.128906 C 280.984375 117.121094 280.757812 116.324219 280.304688 115.742188 C 279.855469 115.152344 279.234375 114.859375 278.441406 114.859375 Z M 291.988281 114.859375 C 291.3125 114.859375 290.761719 115.136719 290.324219 115.691406 C 289.890625 116.246094 289.675781 117 289.675781 117.964844 C 289.675781 119.019531 289.890625 119.824219 290.320312 120.378906 C 290.75 120.933594 291.335938 121.207031 292.070312 121.207031 C 292.378906 121.207031 292.730469 121.109375 293.128906 120.902344 C 293.53125 120.703125 293.855469 120.324219 294.101562 119.777344 C 294.285156 119.339844 294.382812 118.769531 294.382812 118.066406 C 294.382812 117.042969 294.160156 116.257812 293.722656 115.699219 C 293.28125 115.140625 292.703125 114.859375 291.988281 114.859375 Z M 306.867188 114.859375 C 306.121094 114.859375 305.515625 115.148438 305.050781 115.722656 C 304.589844 116.300781 304.359375 117.101562 304.359375 118.128906 C 304.359375 119.160156 304.589844 119.960938 305.046875 120.53125 C 305.5 121.101562 306.113281 121.386719 306.882812 121.386719 C 307.640625 121.386719 308.25 121.105469 308.710938 120.539062 C 309.175781 119.976562 309.40625 119.171875 309.40625 118.128906 C 309.40625 117.121094 309.179688 116.324219 308.730469 115.742188 C 308.28125 115.152344 307.660156 114.859375 306.867188 114.859375 Z M 306.867188 114.859375 " fill-opacity="1" fill-rule="nonzero"/></g></g></g></g></svg>