<svg xmlns="http://www.w3.org/2000/svg" xmlns:xlink="http://www.w3.org/1999/xlink" width="4000" zoomAndPan="magnify" viewBox="0 0 3000 2999.999989" height="4000" preserveAspectRatio="xMidYMid meet" version="1.0"><defs><clipPath id="45987c4f54"><path d="M 248 181.648438 L 2752 181.648438 L 2752 2647.648438 L 248 2647.648438 Z M 248 181.648438 " clip-rule="nonzero"/></clipPath></defs><rect x="-300" width="3600" fill="#ffffff" y="-299.999999" height="3599.999987" fill-opacity="1"/><rect x="-300" width="3600" fill="#254aa0" y="-299.999999" height="3599.999987" fill-opacity="1"/><g clip-path="url(#45987c4f54)"><path fill="#ffffff" d="M 1500.023438 181.667969 L 911.113281 770.578125 L 984.746094 844.210938 L 1500.050781 328.929688 L 2015.300781 844.183594 L 2088.90625 770.578125 Z M 1500.023438 402.507812 L 1463.207031 439.320312 L 1021.53125 880.996094 L 1095.136719 954.601562 L 1500.023438 549.714844 L 1904.910156 954.601562 L 1978.515625 880.996094 Z M 1500.023438 623.34375 L 1463.207031 660.160156 L 1131.953125 991.417969 L 1205.554688 1065.019531 L 1500.023438 770.550781 L 1794.492188 1065.019531 L 1868.09375 991.417969 Z M 874.296875 807.367188 L 837.511719 844.183594 L 285.417969 1396.246094 L 359.074219 1469.90625 L 874.355469 954.628906 L 1389.605469 1469.878906 L 1463.207031 1396.277344 Z M 2125.691406 807.367188 L 2088.878906 844.183594 L 1536.8125 1396.21875 L 1610.441406 1469.878906 L 2125.722656 954.601562 L 2641 1469.878906 L 2714.601562 1396.277344 Z M 874.324219 1028.203125 L 837.511719 1065.019531 L 395.863281 1506.695312 L 469.464844 1580.296875 L 874.324219 1175.410156 L 1279.1875 1580.269531 L 1352.789062 1506.667969 Z M 2125.691406 1028.203125 L 2088.878906 1065.019531 L 1647.230469 1506.667969 L 1720.832031 1580.269531 L 2125.691406 1175.410156 L 2530.582031 1580.296875 L 2604.183594 1506.695312 Z M 874.324219 1249.042969 L 837.511719 1285.855469 L 506.28125 1617.113281 L 579.886719 1690.71875 L 874.324219 1396.25 L 1168.765625 1690.71875 L 1242.371094 1617.113281 Z M 2125.691406 1249.042969 L 2088.878906 1285.828125 L 1757.648438 1617.085938 L 1831.25 1690.6875 L 2125.691406 1396.25 L 2420.160156 1690.71875 L 2493.765625 1617.113281 Z M 248.628906 1433.0625 C 248.683594 1482.144531 248.546875 1531.25 248.628906 1580.324219 L 874.296875 2205.996094 L 1473.988281 1606.332031 L 1473.988281 1459.097656 L 1426.421875 1506.695312 L 874.324219 2058.761719 L 690.304688 1874.738281 L 322.257812 1506.695312 Z M 2751.390625 1433.089844 L 2346.558594 1837.921875 L 2346.53125 1837.921875 L 2125.691406 2058.761719 L 1904.882812 1837.921875 L 1573.625 1506.667969 L 1526 1459.070312 L 1526 1606.304688 L 2125.691406 2205.996094 L 2751.390625 1580.269531 Z M 248.628906 1653.902344 L 248.628906 1801.164062 L 874.296875 2426.832031 L 1473.988281 1827.167969 L 1473.988281 1679.964844 L 874.324219 2279.597656 Z M 2751.390625 1653.902344 L 2125.691406 2279.597656 L 1526.027344 1679.90625 L 1526.027344 1827.167969 L 2125.691406 2426.804688 L 2751.390625 1801.109375 Z M 248.628906 1874.738281 L 248.628906 2022 L 874.296875 2647.671875 L 1473.988281 2048.007812 L 1473.988281 1900.773438 L 874.324219 2500.4375 Z M 2751.390625 1874.738281 L 2125.691406 2500.410156 L 1526.027344 1900.746094 L 1526.027344 2047.980469 L 2125.691406 2647.644531 L 2751.390625 2021.945312 Z M 2751.390625 1874.738281 " fill-opacity="1" fill-rule="nonzero"/></g></svg>